<svg xmlns="http://www.w3.org/2000/svg" viewBox="0 0 200 340" width="200" height="340">
  <!-- 靴 -->
  <ellipse cx="76" cy="326" rx="24" ry="11" fill="#333344"/>
  <ellipse cx="124" cy="326" rx="24" ry="11" fill="#333344"/>
  <!-- 足 -->
  <rect x="66" y="278" width="20" height="50" rx="7" fill="#FFDAB9"/>
  <rect x="114" y="278" width="20" height="50" rx="7" fill="#FFDAB9"/>
  <!-- スカート下 -->
  <path d="M 54 210 Q 50 270 64 278 L 136 278 Q 150 270 146 210 Z" fill="#88BBEE"/>
  <!-- トップス -->
  <path d="M 62 162 Q 38 170 42 210 L 158 210 Q 162 170 138 162 Q 122 174 100 170 Q 78 174 62 162 Z" fill="#90EE90"/>
  <!-- 左腕（ピンク） -->
  <path d="M 62 165 Q 36 178 30 208 L 46 212 Q 52 190 66 176 Z" fill="#FF88AA"/>
  <ellipse cx="33" cy="212" rx="11" ry="10" fill="#FFDAB9"/>
  <!-- 右腕（青） -->
  <path d="M 138 165 Q 164 178 170 208 L 154 212 Q 148 190 134 176 Z" fill="#6699EE"/>
  <ellipse cx="167" cy="212" rx="11" ry="10" fill="#FFDAB9"/>
  <!-- 首 -->
  <rect x="88" y="140" width="24" height="26" rx="5" fill="#FFDAB9"/>
  <!-- 頭 -->
  <circle cx="100" cy="84" r="62" fill="#FFDAB9"/>
  <!-- 髪（後ろ）-->
  <path d="M 38 84 Q 38 22 100 20 Q 162 22 162 84 Q 162 120 158 140 L 42 140 Q 38 120 38 84 Z" fill="#D4A848"/>
  <!-- 目の白 -->
  <ellipse cx="80" cy="88" rx="14" ry="13" fill="white"/>
  <ellipse cx="120" cy="88" rx="14" ry="13" fill="white"/>
  <!-- 瞳 -->
  <circle cx="80" cy="90" r="8" fill="#3D2B1F"/>
  <circle cx="120" cy="90" r="8" fill="#3D2B1F"/>
  <!-- ハイライト -->
  <circle cx="77" cy="87" r="3.5" fill="white"/>
  <circle cx="117" cy="87" r="3.5" fill="white"/>
  <!-- まつ毛 -->
  <path d="M 66 82 Q 80 74 94 82" stroke="#333" stroke-width="2.5" fill="none" stroke-linecap="round"/>
  <path d="M 106 82 Q 120 74 134 82" stroke="#333" stroke-width="2.5" fill="none" stroke-linecap="round"/>
  <!-- 鼻 -->
  <path d="M 97 100 Q 100 105 103 100" stroke="#C89070" stroke-width="1.5" fill="none" stroke-linecap="round"/>
  <!-- ほっぺ -->
  <circle cx="63" cy="104" r="13" fill="#FFB6A0" opacity="0.55"/>
  <circle cx="137" cy="104" r="13" fill="#FFB6A0" opacity="0.55"/>
  <!-- くちびる -->
  <path d="M 88 116 Q 100 126 112 116 Q 108 122 100 124 Q 92 122 88 116 Z" fill="#FF6B8A"/>
  <path d="M 88 116 Q 100 126 112 116" stroke="#E85070" stroke-width="1" fill="none" stroke-linecap="round"/>
  <!-- 前髪 -->
  <path d="M 38 84 Q 40 50 100 38 Q 160 50 162 84 Q 148 62 100 60 Q 52 62 38 84 Z" fill="#D4A848"/>
  <path d="M 40 86 Q 52 54 80 46 L 76 70 Z" fill="#C49838"/>
  <path d="M 160 86 Q 148 54 120 46 L 124 70 Z" fill="#C49838"/>
  <!-- 服のハート装飾 -->
  <path d="M 96 184 Q 96 178 100 180 Q 104 178 104 184 Q 107 187 100 193 Q 93 187 96 184 Z" fill="#FF69B4" opacity="0.85"/>
  <!-- 横の花 -->
  <circle cx="168" cy="290" r="18" fill="white" stroke="#CCCCCC" stroke-width="2"/>
  <circle cx="168" cy="266" r="10" fill="white" stroke="#CCCCCC" stroke-width="2"/>
  <circle cx="186" cy="278" r="10" fill="white" stroke="#CCCCCC" stroke-width="2"/>
  <circle cx="150" cy="278" r="10" fill="white" stroke="#CCCCCC" stroke-width="2"/>
  <circle cx="168" cy="290" r="8" fill="#FFEE99"/>
  <rect x="166" y="308" width="4" height="25" rx="2" fill="#99BB66"/>
</svg>
